# xmcd CD database file
#
# Track frame offsets:
#	150
#	16402
#	33905
#	49600
#	66922
#	87102
#	104382
#	107417
#	117037
#	131327
#	150437
#	167125
#
# Disc length: 2527 seconds
#
# Revision: 0
# Processed by: cddbd v1.4PL0 Copyright (c) Steve Scherf et al.
# Submitted via: CDex 1.40Beta8
#
DISCID=8809dd0c
DTITLE=Colin Buchanan - Galahs in the Gidgee
DYEAR=1991
DGENRE=Country
TTITLE0=Galaghs in the Gidgee
TTITLE1=Uncle Viv
TTITLE2=Frank the Scab
TTITLE3=Harvest
TTITLE4=She Waits
TTITLE5=The Debutantes Ball
TTITLE6=Filler
TTITLE7=Farm Cars
TTITLE8=Come What May
TTITLE9=Time For a Yarn
TTITLE10=Singlets Blue
TTITLE11=Progress
EXTD=YEAR: 1991 ID3G: 2
EXTT0=
EXTT1=
EXTT2=
EXTT3=
EXTT4=
EXTT5=
EXTT6=
EXTT7=
EXTT8=
EXTT9=
EXTT10=
EXTT11=
PLAYORDER=
